<svg xmlns="http://www.w3.org/2000/svg" width="48.5" height="50" viewBox="0 0 48.5 64.667">
  <g id="Group_1250" data-name="Group 1250" transform="translate(-64)">
    <path id="Path_1466" data-name="Path 1466" d="M88.25,0A24.277,24.277,0,0,0,64,24.25C64,42.14,86.374,63.4,87.326,64.3a1.349,1.349,0,0,0,1.847,0C90.126,63.4,112.5,42.14,112.5,24.25A24.277,24.277,0,0,0,88.25,0Zm0,61.434C84.016,57.207,66.694,39.006,66.694,24.25a21.556,21.556,0,1,1,43.111,0C109.806,39.006,92.484,57.207,88.25,61.434Z" fill="#bc7296"/>
    <path id="Path_1467" data-name="Path 1467" d="M162.805,85.333a13.472,13.472,0,1,0,13.472,13.472A13.488,13.488,0,0,0,162.805,85.333Zm0,24.25a10.778,10.778,0,1,1,10.778-10.778A10.789,10.789,0,0,1,162.805,109.583Z" transform="translate(-74.555 -74.555)" fill="#bc7296"/>
  </g>
</svg>
