<?xml version="1.0" standalone="no"?>
<!DOCTYPE svg PUBLIC "-//W3C//DTD SVG 20010904//EN"
 "http://www.w3.org/TR/2001/REC-SVG-20010904/DTD/svg10.dtd">
<svg version="1.0" xmlns="http://www.w3.org/2000/svg"
 width="152.000000pt" height="152.000000pt" viewBox="0 0 152.000000 152.000000"
 preserveAspectRatio="xMidYMid meet">
<metadata>
Created by potrace 1.11, written by Peter Selinger 2001-2013
</metadata>
<g transform="translate(0.000000,152.000000) scale(0.100000,-0.100000)"
fill="#000000" stroke="none">
<path d="M546 1212 c-4 -3 -17 -7 -29 -9 -33 -5 -44 -23 -51 -78 -11 -105 -19
-180 -19 -192 0 -7 -3 -13 -6 -13 -4 0 -6 -15 -5 -33 1 -18 -9 -60 -23 -92
-59 -140 1 -244 151 -261 82 -10 141 10 198 67 l46 46 5 -27 c3 -14 15 -37 25
-50 35 -43 158 -29 231 25 37 27 138 135 126 135 -3 0 -1 9 6 21 18 34 19 98
2 107 -11 7 -36 -12 -95 -69 -73 -72 -112 -98 -124 -86 -11 10 -3 100 13 152
3 11 7 31 9 45 1 14 3 25 4 25 1 0 4 11 6 25 2 14 7 45 12 70 11 63 8 168 -7
183 -16 16 -105 14 -137 -3 -14 -8 -31 -26 -38 -40 -10 -20 -12 -93 -5 -155 1
-5 -4 -30 -10 -55 -6 -25 -14 -56 -17 -70 -9 -46 -69 -154 -96 -173 -32 -24
-74 -25 -96 -3 -18 17 -18 65 -1 130 6 22 12 49 14 60 1 12 5 29 9 39 28 78
35 144 22 214 -4 23 -14 47 -21 53 -15 13 -90 22 -99 12z"/>
<path d="M360 251 l0 -36 362 2 c200 1 368 2 373 2 6 1 10 16 10 34 l-1 32
-372 1 -372 2 0 -37z"/>
</g>
</svg>
